<svg xmlns="http://www.w3.org/2000/svg" viewBox="0 0 1920 1080"><defs><style>.cls-1{fill:#fff;}.cls-2,.cls-3,.cls-4,.cls-6{fill:none;stroke-miterlimit:8;}.cls-2{stroke:#7f7f7f;stroke-width:2px;stroke-dasharray:10 10 10 10;}.cls-3{stroke:#4293d7;stroke-width:5px;}.cls-3,.cls-4{stroke-linecap:round;}.cls-4{stroke:#6e7f10;stroke-width:6px;}.cls-5{fill-rule:evenodd;}.cls-6{stroke:#2f528f;}.cls-17,.cls-20,.cls-7{font-size:38.87px;}.cls-17,.cls-20,.cls-24,.cls-7{font-family:SourceSansPro-Regular, Source Sans Pro;}.cls-8{letter-spacing:0em;}.cls-9{letter-spacing:0em;}.cls-10{letter-spacing:0em;}.cls-11{letter-spacing:0em;}.cls-12{letter-spacing:0em;}.cls-13{letter-spacing:0em;}.cls-14{letter-spacing:0em;}.cls-15{letter-spacing:0em;}.cls-16{letter-spacing:0em;}.cls-17{fill:#4293d7;}.cls-18{letter-spacing:0em;}.cls-19{letter-spacing:0em;}.cls-20{fill:#6e7f10;}.cls-21{letter-spacing:0em;}.cls-22{letter-spacing:0em;}.cls-23{letter-spacing:0.01em;}.cls-24{font-size:38.87px;}</style></defs><g id="Layer_2" data-name="Layer 2"><g id="Layer_5" data-name="Layer 5"><rect class="cls-1" width="1920" height="1080"/><line class="cls-2" x1="969.4" y1="111.1" x2="969.4" y2="895.3"/><line class="cls-2" x1="612.6" y1="111.1" x2="612.6" y2="895.3"/><line class="cls-2" x1="1685.8" y1="111.1" x2="1685.8" y2="895.3"/><line class="cls-2" x1="1328" y1="111.1" x2="1328" y2="895.3"/><line class="cls-2" x1="255.5" y1="111.1" x2="255.5" y2="895.3"/><polygon class="cls-3" points="612.1 145.4 970 503.3 612.1 861.1 254.3 503.3 612.1 145.4 612.1 145.4"/><polygon class="cls-4" points="1327.9 144.7 1685.8 502.5 1327.9 860.4 970 502.5 1327.9 144.7 1327.9 144.7"/><rect class="cls-1" x="478.2" y="338.6" width="263.3" height="320.77"/><rect class="cls-1" x="1165.1" y="425.4" width="327.5" height="151.14"/><path class="cls-5" d="M226.6,502.5a27.8,27.8,0,1,1,27.7,27.7,27.7,27.7,0,0,1-27.7-27.7Z"/><path class="cls-6" d="M226.6,502.5a27.8,27.8,0,1,1,27.7,27.7,27.7,27.7,0,0,1-27.7-27.7Z"/><path class="cls-5" d="M942.3,501.2A27.7,27.7,0,1,1,970,528.9a27.7,27.7,0,0,1-27.7-27.7Z"/><path class="cls-6" d="M942.3,501.2A27.7,27.7,0,1,1,970,528.9a27.7,27.7,0,0,1-27.7-27.7Z"/><path class="cls-5" d="M1658,501.2a27.7,27.7,0,1,1,27.7,27.7,27.7,27.7,0,0,1-27.7-27.7Z"/><path class="cls-6" d="M1658,501.2a27.7,27.7,0,1,1,27.7,27.7,27.7,27.7,0,0,1-27.7-27.7Z"/><text class="cls-7" transform="translate(363.7 152.3)"><tspan class="cls-8">D</tspan><tspan class="cls-9" x="23.9" y="0">i</tspan><tspan class="cls-10" x="33.5" y="0">s</tspan><tspan class="cls-8" x="49.8" y="0">c</tspan><tspan class="cls-11" x="67.4" y="0">ov</tspan><tspan class="cls-12" x="106.6" y="0">e</tspan><tspan x="125.8" y="0">r</tspan></text><text class="cls-7" transform="translate(738 152.3)"><tspan class="cls-8">De</tspan><tspan class="cls-13" x="43.1" y="0">f</tspan><tspan x="54.5" y="0">ine</tspan></text><text class="cls-7" transform="translate(1068 152.3)"><tspan class="cls-8">De</tspan><tspan class="cls-14" x="43.1" y="0">v</tspan><tspan class="cls-12" x="61.2" y="0">e</tspan><tspan class="cls-14" x="80.4" y="0">lo</tspan><tspan x="111.3" y="0">p</tspan></text><text class="cls-7" transform="translate(1445.5 152.3)"><tspan class="cls-8">De</tspan><tspan class="cls-14" x="43.1" y="0">l</tspan><tspan class="cls-9" x="52.9" y="0">i</tspan><tspan class="cls-15" x="62.5" y="0">v</tspan><tspan class="cls-12" x="80.7" y="0">e</tspan><tspan x="99.9" y="0">r</tspan></text><text class="cls-7" transform="translate(42.1 514.7)">P<tspan class="cls-14" x="22" y="0">ro</tspan><tspan x="56.6" y="0">b</tspan><tspan class="cls-14" x="78.1" y="0">l</tspan><tspan class="cls-12" x="88" y="0">e</tspan><tspan x="107.2" y="0">m</tspan></text><text class="cls-7" transform="translate(1739.9 511)">S<tspan class="cls-11" x="20.8" y="0">ol</tspan><tspan class="cls-16" x="51.7" y="0">u</tspan><tspan class="cls-10" x="72.9" y="0">t</tspan><tspan x="86.1" y="0">i</tspan><tspan class="cls-14" x="95.7" y="0">o</tspan><tspan x="116.7" y="0">n</tspan></text><text class="cls-7" transform="translate(888.8 658.9)"><tspan class="cls-8">De</tspan><tspan class="cls-13" x="43.1" y="0">f</tspan><tspan x="54.5" y="0">ini</tspan><tspan class="cls-10" x="94.9" y="0">t</tspan><tspan x="108.1" y="0">i</tspan><tspan class="cls-14" x="117.7" y="0">o</tspan><tspan class="cls-9" x="138.8" y="0">n</tspan></text><text class="cls-17" transform="translate(513.4 371)"><tspan class="cls-14">B</tspan><tspan class="cls-18" x="22.8" y="0">a</tspan><tspan class="cls-12" x="42.5" y="0">c</tspan><tspan class="cls-15" x="60.1" y="0">k</tspan><tspan class="cls-10" x="79.3" y="0">g</tspan><tspan class="cls-14" x="99" y="0">ro</tspan><tspan class="cls-16" x="133.5" y="0">u</tspan><tspan x="154.7" y="0">nd</tspan></text><text class="cls-17" transform="translate(575.8 417.7)">P<tspan class="cls-14" x="22" y="0">l</tspan><tspan class="cls-18" x="31.9" y="0">a</tspan><tspan x="51.6" y="0">n</tspan></text><text class="cls-17" transform="translate(537.7 464.3)"><tspan class="cls-19">R</tspan><tspan class="cls-12" x="22" y="0">e</tspan><tspan class="cls-10" x="41.2" y="0">s</tspan><tspan class="cls-12" x="57.6" y="0">e</tspan><tspan class="cls-18" x="76.8" y="0">a</tspan><tspan class="cls-15" x="96.4" y="0">r</tspan><tspan class="cls-12" x="109.9" y="0">c</tspan><tspan x="127.6" y="0">h</tspan></text><text class="cls-17" transform="translate(490.6 511)">Un<tspan class="cls-15" x="46.4" y="0">d</tspan><tspan class="cls-12" x="67.9" y="0">e</tspan><tspan class="cls-14" x="87.1" y="0">r</tspan><tspan class="cls-10" x="100.6" y="0">st</tspan><tspan class="cls-18" x="130.1" y="0">a</tspan><tspan x="149.8" y="0">n</tspan><tspan class="cls-15" x="171.1" y="0">d</tspan><tspan class="cls-9" x="192.6" y="0">ing</tspan></text><text class="cls-17" transform="translate(546 557.6)"><tspan class="cls-16">A</tspan><tspan x="21.2" y="0">n</tspan><tspan class="cls-18" x="42.5" y="0">a</tspan><tspan class="cls-14" x="62.1" y="0">ly</tspan><tspan class="cls-10" x="90.2" y="0">s</tspan><tspan x="106.5" y="0">is</tspan></text><text class="cls-17" transform="translate(542.9 604.2)"><tspan class="cls-14">F</tspan><tspan x="19.2" y="0">in</tspan><tspan class="cls-14" x="50.1" y="0">d</tspan><tspan x="71.6" y="0">in</tspan><tspan class="cls-10" x="102.5" y="0">g</tspan><tspan x="122.1" y="0">s</tspan></text><text class="cls-17" transform="translate(534.9 650.9)"><tspan class="cls-8">Dec</tspan><tspan x="60.7" y="0">i</tspan><tspan class="cls-10" x="70.3" y="0">s</tspan><tspan class="cls-9" x="86.6" y="0">i</tspan><tspan class="cls-14" x="96.2" y="0">o</tspan><tspan x="117.3" y="0">ns</tspan></text><text class="cls-20" transform="translate(1173 463.9)"><tspan class="cls-21">G</tspan><tspan class="cls-12" x="24.1" y="0">e</tspan><tspan x="43.3" y="0">n</tspan><tspan class="cls-12" x="64.6" y="0">e</tspan><tspan class="cls-15" x="83.8" y="0">r</tspan><tspan class="cls-18" x="97.2" y="0">a</tspan><tspan class="cls-10" x="116.9" y="0">t</tspan><tspan class="cls-12" x="130.1" y="0">e</tspan><tspan x="149.3" y="0"> </tspan><tspan class="cls-16" x="157.1" y="0">C</tspan><tspan class="cls-14" x="179.4" y="0">o</tspan><tspan x="200.4" y="0">n</tspan><tspan class="cls-12" x="221.7" y="0">ce</tspan><tspan class="cls-15" x="258.5" y="0">p</tspan><tspan class="cls-13" x="280" y="0">t</tspan><tspan class="cls-22" x="293.3" y="0">s</tspan></text><text class="cls-20" transform="translate(1226.9 510.5)"><tspan class="cls-16">C</tspan><tspan class="cls-14" x="22.3" y="0">r</tspan><tspan class="cls-8" x="35.8" y="0">e</tspan><tspan class="cls-18" x="55" y="0">a</tspan><tspan class="cls-10" x="74.6" y="0">t</tspan><tspan class="cls-12" x="87.8" y="0">e</tspan><tspan x="107" y="0"> </tspan><tspan class="cls-12" x="114.8" y="0">I</tspan><tspan class="cls-14" x="125" y="0">d</tspan><tspan class="cls-8" x="146.5" y="0">e</tspan><tspan class="cls-18" x="165.7" y="0">a</tspan><tspan x="185.4" y="0">s</tspan></text><text class="cls-20" transform="translate(1182.4 557.2)">P<tspan class="cls-14" x="22" y="0">ro</tspan><tspan class="cls-10" x="56.6" y="0">t</tspan><tspan class="cls-14" x="69.8" y="0">o</tspan><tspan class="cls-10" x="90.8" y="0">t</tspan><tspan class="cls-14" x="104" y="0">yp</tspan><tspan class="cls-12" x="143.7" y="0">e</tspan><tspan class="cls-23" x="162.9" y="0"> </tspan><tspan class="cls-12" x="170.9" y="0">Te</tspan><tspan class="cls-10" x="210.9" y="0">st</tspan><tspan x="240.4" y="0">ing</tspan></text><text class="cls-24" transform="translate(529.4 953.3)">Week 1 - 6</text><text class="cls-24" transform="translate(1238 953.3)">Week 7 - 12</text></g></g></svg>