<svg xmlns="http://www.w3.org/2000/svg" viewBox="0 0 500 124.19"><defs><style>.cls-1{fill:#fff;}</style></defs><g id="Layer_2" data-name="Layer 2"><g id="landscape"><path class="cls-1" d="M254.83,60.1V33.72h-9.52V28H270.9v5.73h-9.46V60.1Z"/><path class="cls-1" d="M273.23,50.18h6.52a5.44,5.44,0,0,0,2.15,3.91,8.85,8.85,0,0,0,5.17,1.28,7.52,7.52,0,0,0,4.34-1,3.46,3.46,0,0,0,1.46-3c0-1.94-2.8-3.56-8.39-4.83l-.2,0-.68-.15a21.16,21.16,0,0,1-6.41-2.2,7.2,7.2,0,0,1-2.59-2.93,10,10,0,0,1-.89-4.35,8.57,8.57,0,0,1,3.18-7.18q3.18-2.51,9.2-2.5,5.63,0,8.79,2.66a9.72,9.72,0,0,1,3.35,7.5h-6.34a4.69,4.69,0,0,0-1.79-3.56,7.54,7.54,0,0,0-4.6-1.22,6.74,6.74,0,0,0-4,1,3.33,3.33,0,0,0-1.41,2.88q0,2.57,5.48,3.82l2.31.54q3.5.9,5,1.4a15.84,15.84,0,0,1,2.56,1.11,7.31,7.31,0,0,1,2.94,2.89,8.9,8.9,0,0,1,1,4.3A9.48,9.48,0,0,1,296,58.24Q292.58,61,286.44,61t-9.51-2.81A10.46,10.46,0,0,1,273.23,50.18Z"/><path class="cls-1" d="M302,60.1V54.52l17.46-20.71H302.33V28h25.13v5.58L310,54.3h17.11v5.8Z"/><path class="cls-1" d="M344,60.1V28h6.61V41.18L363.14,28h8.26L358.58,41l14,19.12h-8.06L354,45.41l-3.42,3.4V60.1Z"/><path class="cls-1" d="M375.61,60.1V28h6.6V60.1Z"/><path class="cls-1" d="M389.1,60.1V28H396l13,22.06V28h6.52V60.1h-6.82L395.62,38V60.1Z"/><path class="cls-1" d="M434.87,60.1V28h6.61V54.17h15.67V60.1Z"/><path class="cls-1" d="M461,60.1V28h6.61V60.1Z"/><path class="cls-1" d="M474.28,27.9H481V48q0,3.74,1.48,5.44t4.71,1.71c2.18,0,3.77-.56,4.76-1.7s1.5-3,1.5-5.45V27.9H500V48.76q0,5.91-3.3,9.07T487.18,61q-6.26,0-9.58-3.15t-3.32-9.08Z"/><path class="cls-1" d="M251.56,96.49l-6.25-21.81H250l3.73,15.38,3.15-15.38h4.79l3.15,15.38,3.73-15.38h4.61l-6.24,21.81H262.6l-3.37-16.7-3.39,16.7Z"/><path class="cls-1" d="M275.63,78.6V74.68h4.31V78.6Zm0,17.89V80.39h4.31v16.1Z"/><path class="cls-1" d="M283.94,96.49V74.68h4.31V96.49Z"/><path class="cls-1" d="M292.28,96.49V74.68h4.31V96.49Z"/><path class="cls-1" d="M300.56,78.6V74.68h4.31V78.6Zm0,17.89V80.39h4.31v16.1Z"/><path class="cls-1" d="M317.94,94.49a5.32,5.32,0,0,1-2.13,1.92,6.77,6.77,0,0,1-3.07.66,4.75,4.75,0,0,1-3.6-1.33,5.29,5.29,0,0,1-1.27-3.8,4.51,4.51,0,0,1,1.27-3.47,7.69,7.69,0,0,1,4.18-1.65l1.75-.24c1.83-.23,2.74-.76,2.74-1.58a1.57,1.57,0,0,0-.61-1.4,3.68,3.68,0,0,0-2-.42,3.29,3.29,0,0,0-2,.52,1.73,1.73,0,0,0-.69,1.48v.23h-4v-.29a4.72,4.72,0,0,1,1.75-3.89A7.46,7.46,0,0,1,315,79.82,9.51,9.51,0,0,1,320.2,81a3.78,3.78,0,0,1,1.8,3.37v9.15a4.08,4.08,0,0,0,.21,1.51,1.48,1.48,0,0,0,.69.75v.72h-4.48a3.36,3.36,0,0,1-.34-.92A5.13,5.13,0,0,1,317.94,94.49Zm-.07-5.92a11.46,11.46,0,0,1-2.42.78l-1.42.31a3.44,3.44,0,0,0-1.59.82,1.91,1.91,0,0,0-.45,1.35,1.8,1.8,0,0,0,.58,1.41,2.21,2.21,0,0,0,1.55.53,3.74,3.74,0,0,0,2.75-1,3.63,3.63,0,0,0,1-2.69Z"/><path class="cls-1" d="M325.76,96.49V80.39h4.09v1.78a6.15,6.15,0,0,1,2-1.67,5.3,5.3,0,0,1,2.46-.56,5.53,5.53,0,0,1,2.61.57,5.23,5.23,0,0,1,1.88,1.79,5.38,5.38,0,0,1,4.57-2.36,4.9,4.9,0,0,1,5.27,5.3V96.49H344.4V86.13a2.54,2.54,0,0,0-.62-1.82,2.37,2.37,0,0,0-1.76-.64,2.54,2.54,0,0,0-2,.82,3.24,3.24,0,0,0-.74,2.24v9.76h-4.21V86.16a2.57,2.57,0,0,0-.61-1.84,2.22,2.22,0,0,0-1.72-.65,2.52,2.52,0,0,0-2,.83,3.27,3.27,0,0,0-.73,2.26v9.73Z"/><path class="cls-1" d="M85.29,36.08l13.3-13.3c.1-.1.15-.21.12-.24L84.89,8.72,71.23,22.38,85.05,36.2S85.19,36.18,85.29,36.08Z"/><path class="cls-1" d="M212.58,51.79l0,0-6.44-6.45L160.8,0,147.14,13.66,192.46,59,163.8,87.64l-20-20L130.14,54,103.89,27.72c-.06-.06-.2,0-.29.06L90.29,41.09a.23.23,0,0,0-.06.29l26.26,26.25L83,101.1,13.66,31.74,0,45.39l69.36,69.37,6.45,6.44a10.2,10.2,0,0,0,14.42,0l6.45-6.44,33.46-33.47,25.25,25.24,1,1a10.5,10.5,0,0,0,11.15,2.39l.07,0a8.08,8.08,0,0,0,.79-.37,8.8,8.8,0,0,0,2.66-1.76l5.34-5.35,29.73-29.72,6.47-6.48h0a3.58,3.58,0,0,0,1-2.56q0-4.63,0-9.27A3.62,3.62,0,0,0,212.58,51.79Z"/></g></g></svg>